<?xml version="1.0" standalone="no"?>
<!DOCTYPE svg PUBLIC "-//W3C//DTD SVG 20010904//EN"
 "http://www.w3.org/TR/2001/REC-SVG-20010904/DTD/svg10.dtd">
<svg version="1.0" xmlns="http://www.w3.org/2000/svg"
 width="300.000000pt" height="300.000000pt" viewBox="0 0 300.000000 300.000000"
 preserveAspectRatio="xMidYMid meet">
<metadata>
Created by potrace 1.14, written by Peter Selinger 2001-2017
</metadata>
<g transform="translate(0.000000,300.000000) scale(0.100000,-0.100000)"
fill="#000000" stroke="none">
<path d="M1373 2455 c-177 -48 -322 -195 -383 -388 -14 -45 -5 -63 10 -21 37
104 127 228 214 298 52 42 127 84 161 92 6 1 28 9 50 17 51 20 17 20 -52 2z"/>
<path d="M1476 2461 c7 -8 8 -27 4 -50 -4 -21 -5 -46 -3 -57 5 -21 4 -19 3
-99 -2 -69 6 -94 28 -91 9 2 31 -1 47 -6 17 -4 43 -11 59 -14 52 -9 135 -55
188 -103 118 -108 301 -406 345 -561 5 -17 5 -137 0 -160 -28 -133 -152 -357
-291 -525 -65 -78 -69 -85 -58 -85 6 0 17 7 26 15 8 8 18 15 21 15 4 0 32 17
63 37 72 47 155 125 195 183 17 25 34 47 37 50 4 3 24 39 46 80 48 91 43 84
48 79 6 -6 -28 -126 -46 -161 -7 -16 -16 -28 -20 -28 -5 0 -8 -6 -8 -14 0 -22
-137 -157 -207 -204 -35 -23 -63 -39 -63 -36 0 4 -8 0 -17 -8 -10 -8 -38 -23
-63 -33 -25 -11 -58 -28 -75 -38 l-30 -18 30 7 c116 25 282 98 387 168 74 50
112 86 153 141 17 22 33 42 36 45 3 3 15 31 27 63 30 85 29 234 -3 325 -31 89
-58 148 -95 202 -16 25 -30 49 -30 54 0 5 -6 17 -13 25 -7 9 -33 61 -56 116
-24 55 -50 115 -58 133 -8 18 -30 71 -49 118 -19 47 -46 111 -61 141 -28 56
-148 193 -170 193 -7 0 -13 4 -13 8 0 12 -84 56 -145 77 -64 21 -185 33 -169
16z"/>
<path d="M1416 2163 c-2 -3 -10 -6 -18 -7 -125 -24 -241 -101 -314 -209 -16
-23 -31 -44 -34 -47 -34 -31 -179 -285 -205 -360 -53 -151 -39 -229 74 -398
31 -46 61 -91 66 -100 6 -9 12 -19 16 -22 11 -10 69 -111 69 -120 0 -5 4 -12
10 -15 7 -4 7 3 0 20 -18 48 -73 160 -92 188 -11 15 -16 27 -11 27 4 0 3 4 -2
8 -14 10 -66 96 -100 167 -47 95 -43 153 18 287 30 66 106 192 118 196 5 2 7
8 4 12 -3 5 -1 11 4 15 6 3 8 -4 5 -17 -3 -13 -7 -50 -10 -83 -5 -77 -12 -149
-15 -152 -1 -2 -2 -6 -3 -10 -14 -56 -18 -79 -21 -100 -4 -35 33 -149 62 -194
28 -43 39 -76 63 -192 26 -123 67 -201 142 -273 98 -94 222 -170 237 -146 8
13 5 251 -3 259 -3 3 -21 7 -41 9 -61 5 -77 23 -18 20 28 -1 58 -8 66 -14 10
-8 28 -9 61 -3 60 11 73 23 21 21 -80 -4 -88 -2 -82 21 4 14 0 22 -15 28 -25
9 -120 7 -168 -3 -27 -6 -32 -5 -24 4 6 6 18 13 25 14 8 1 38 10 68 19 30 9
67 17 83 17 15 0 28 5 29 10 1 6 1 22 2 38 l1 27 -130 0 c-128 0 -131 1 -180
30 -75 47 -96 94 -102 224 -5 108 3 136 12 46 13 -131 33 -173 94 -197 35 -13
172 -18 172 -6 0 5 -5 18 -10 28 -14 27 2 63 42 91 l33 23 -20 -25 c-11 -13
-23 -26 -27 -29 -7 -5 -11 -28 -9 -48 0 -7 17 -20 36 -28 20 -8 45 -26 57 -39
12 -14 24 -25 27 -25 8 0 5 779 -3 787 -4 4 -14 8 -23 9 -10 2 -51 19 -93 38
-72 34 -103 44 -144 45 -46 2 84 88 148 98 39 7 60 11 64 13 1 1 12 3 25 3 21
1 22 -2 24 -92 1 -51 6 -98 12 -104 5 -5 21 -6 38 -2 15 5 30 9 33 9 3 1 26
13 51 28 48 28 133 53 150 43 18 -12 9 15 -13 35 -25 23 -95 59 -129 65 -13 3
-37 8 -54 11 -16 4 -39 8 -50 8 -11 1 -27 6 -35 11 -16 10 -57 15 -64 8z
m-169 -285 c84 -37 197 -136 187 -163 -10 -24 -28 -18 -91 29 -33 24 -78 54
-100 67 -36 20 -43 21 -72 10 -33 -14 -88 -76 -107 -120 -8 -21 -11 -23 -17
-8 -7 19 39 113 73 147 19 19 73 49 92 50 4 0 20 -5 35 -12z m79 -285 l35 -62
-41 -21 c-37 -19 -43 -19 -68 -6 -56 31 -56 29 -17 95 20 34 41 61 46 59 6 -2
26 -31 45 -65z m-17 -108 c18 9 34 15 35 13 1 -2 -12 -24 -30 -50 -36 -52 -30
-54 -89 26 l-28 39 40 -22 c39 -22 41 -22 72 -6z"/>
<path d="M1717 1874 c-12 -7 -31 -17 -42 -22 -28 -14 -113 -90 -126 -114 -26
-49 30 -45 87 7 47 42 133 87 157 81 30 -7 91 -69 114 -115 14 -29 18 -32 21
-16 5 35 -27 95 -76 144 -51 51 -90 61 -135 35z"/>
<path d="M815 1680 c3 -5 2 -10 -2 -10 -5 0 -17 -18 -27 -40 -10 -22 -23 -46
-31 -53 -7 -8 -27 -42 -44 -76 -99 -194 -103 -380 -13 -521 77 -122 248 -240
440 -304 150 -51 166 -50 60 3 -112 56 -145 78 -201 135 -88 89 -201 267 -222
351 -5 17 -10 37 -13 45 -12 37 -2 255 12 279 2 3 7 22 10 41 5 34 26 108 41
143 4 10 3 17 -5 17 -6 0 -8 -4 -5 -10z"/>
<path d="M1669 1685 c-1 -3 -2 -8 -3 -12 -4 -21 -20 -34 -37 -30 -14 4 -19 0
-19 -15 0 -10 4 -17 9 -13 16 9 27 -26 25 -79 0 -34 -6 -51 -17 -58 -22 -12
-22 -35 1 -35 35 0 41 -3 36 -17 -11 -28 16 -27 28 1 10 25 12 26 16 8 7 -35
21 -40 31 -12 6 16 18 27 30 27 40 0 61 71 28 95 -12 8 -13 15 -5 23 18 18 1
61 -27 68 -18 4 -25 13 -25 31 0 30 -24 26 -28 -5 -4 -27 -22 -19 -22 9 0 16
-18 28 -21 14z m81 -99 c0 -14 -21 -26 -44 -26 -15 0 -19 42 -4 51 15 10 48
-8 48 -25z m8 -78 c3 -16 -51 -42 -62 -31 -8 8 -8 48 0 55 10 11 59 -8 62 -24z"/>
<path d="M1882 1438 c-6 -147 -29 -205 -92 -230 -30 -12 -180 -21 -180 -10 0
4 7 15 15 25 18 24 10 44 -32 84 -40 39 -43 33 -7 -14 22 -30 25 -39 15 -59
-6 -13 -19 -24 -29 -24 -30 0 -104 -81 -88 -97 6 -6 51 -9 186 -14 90 -3 171
48 206 129 17 38 27 221 14 242 -4 6 -7 -8 -8 -32z"/>
<path d="M1487 1022 c-14 -29 0 -37 68 -38 39 -1 87 -4 108 -8 25 -4 37 -2 37
6 0 6 -3 9 -6 5 -4 -3 -19 0 -35 9 -16 8 -29 12 -29 8 0 -4 -7 -1 -15 6 -8 6
-19 9 -24 6 -5 -4 -12 -2 -15 2 -6 11 -84 14 -89 4z"/>
<path d="M85 371 c-44 -18 -65 -73 -45 -121 11 -27 57 -60 84 -60 18 0 40 -36
31 -50 -11 -17 -61 -11 -80 10 -17 19 -18 19 -35 -3 -22 -26 -18 -38 19 -60
38 -22 103 -22 124 1 54 60 34 135 -43 163 -36 13 -45 21 -45 40 0 28 27 33
62 13 22 -14 28 -11 47 23 15 27 -77 61 -119 44z"/>
<path d="M845 367 c-59 -32 -86 -101 -72 -184 7 -42 16 -58 44 -84 32 -28 41
-31 85 -27 35 4 54 12 73 32 83 90 39 260 -70 270 -23 2 -50 -1 -60 -7z m90
-72 c14 -13 26 -34 26 -47 1 -13 2 -30 3 -38 2 -23 -25 -67 -48 -78 -75 -34
-129 107 -64 168 29 27 54 25 83 -5z"/>
<path d="M1135 371 c-32 -14 -48 -38 -51 -82 -2 -33 2 -46 22 -64 14 -13 38
-27 54 -30 35 -8 52 -27 44 -48 -10 -26 -31 -27 -66 -3 l-34 23 -16 -22 c-12
-16 -13 -24 -4 -36 33 -45 115 -55 151 -18 54 54 34 124 -44 160 -78 35 -66
88 12 56 33 -14 35 -14 46 9 9 21 7 26 -14 40 -29 19 -73 26 -100 15z"/>
<path d="M2605 371 c-78 -32 -67 -148 16 -172 49 -15 70 -46 44 -65 -15 -11
-23 -11 -46 1 -15 8 -31 20 -34 26 -8 12 -34 -18 -35 -41 -1 -42 121 -68 153
-32 54 60 34 135 -43 163 -32 12 -46 23 -48 38 -5 29 18 35 61 18 33 -14 35
-14 46 9 9 21 7 26 -14 40 -29 19 -73 26 -100 15z"/>
<path d="M349 368 c0 -2 -2 -10 -4 -18 -2 -8 -24 -73 -49 -144 -25 -70 -46
-130 -46 -132 0 -2 13 -4 29 -4 25 0 31 5 36 30 7 31 9 32 75 34 30 1 37 -4
49 -32 11 -25 21 -32 42 -32 l28 0 -52 150 c-50 145 -53 150 -79 150 -16 0
-28 -1 -29 -2z m47 -144 c5 -27 3 -31 -15 -30 -24 1 -25 4 -16 47 8 36 22 28
31 -17z"/>
<path d="M530 341 c0 -26 4 -30 33 -33 l32 -3 2 -105 c1 -58 2 -111 2 -117 1
-7 12 -13 26 -13 28 0 28 3 26 168 l-1 72 35 0 c32 0 35 2 35 30 l0 30 -95 0
-95 0 0 -29z"/>
<path d="M1330 221 l0 -151 25 0 c26 0 27 4 27 55 -1 58 6 66 51 63 l42 -3 3
-58 c3 -53 5 -57 27 -57 24 0 25 3 26 58 1 52 0 182 -1 225 0 11 -8 17 -25 17
-23 0 -24 -4 -27 -62 l-3 -62 -42 -2 c-48 -1 -52 5 -50 76 1 42 -1 45 -26 48
l-27 3 0 -150z"/>
<path d="M1620 221 l0 -151 25 0 c28 0 26 -13 27 170 l0 125 -26 3 -26 3 0
-150z"/>
<path d="M1880 219 l0 -150 27 3 c24 3 26 6 27 58 l1 55 48 3 47 3 0 -60 c0
-58 1 -61 25 -61 14 0 25 6 26 13 1 16 1 248 0 270 -1 11 -9 17 -26 17 -23 0
-24 -4 -27 -62 l-3 -62 -35 -1 c-54 -2 -62 4 -60 44 4 74 2 81 -25 81 l-25 0
0 -151z"/>
<path d="M2170 220 l0 -150 90 0 90 0 0 30 c0 29 -1 29 -62 32 -60 3 -63 4
-66 31 -4 29 3 31 76 27 29 -1 32 1 32 29 0 29 -1 30 -52 33 -49 3 -53 5 -55
31 -2 27 -1 27 56 27 54 0 59 2 63 25 3 13 3 27 0 30 -3 3 -43 5 -89 5 l-83 0
0 -150z"/>
<path d="M2420 220 l0 -150 25 0 c14 0 25 6 25 13 1 39 2 255 1 270 -1 11 -9
17 -26 17 l-25 0 0 -150z"/>
<path d="M2780 340 c0 -28 3 -30 35 -30 l35 0 -1 -77 c-3 -158 -2 -163 26
-163 14 0 25 6 26 13 0 6 1 60 1 120 l0 107 34 0 c31 0 34 3 34 30 l0 30 -95
0 -95 0 0 -30z"/>
</g>
</svg>
